<svg xmlns="http://www.w3.org/2000/svg" xmlns:xlink="http://www.w3.org/1999/xlink" preserveAspectRatio="xMidYMid" width="65" height="65" viewBox="0 0 65 65">
  <defs>
    <style>

      .cls-2 {
        fill: #ffffff;
      }
    </style>
  </defs>
  <path d="M63.997,13.681 C63.997,13.681 52.316,13.681 52.316,13.681 C51.762,13.681 51.315,13.234 51.315,12.681 C51.315,12.681 51.315,1.006 51.315,1.006 C51.315,0.113 52.396,-0.327 53.023,0.300 C53.023,0.300 64.704,11.974 64.704,11.974 C65.338,12.601 64.891,13.681 63.997,13.681 ZM64.998,19.488 C64.998,19.488 64.991,19.488 64.991,19.488 C64.991,19.488 64.991,45.945 64.991,45.945 C64.991,47.605 63.650,48.945 61.989,48.945 C61.989,48.945 41.101,48.945 41.101,48.945 C41.101,48.945 41.101,28.729 41.101,28.729 C41.101,28.729 41.095,28.729 41.095,28.729 C41.101,27.436 40.594,26.169 39.640,25.216 C39.640,25.216 27.959,13.541 27.959,13.541 C27.932,13.508 27.899,13.481 27.872,13.454 C27.872,13.454 27.872,3.000 27.872,3.000 C27.872,1.340 29.213,-0.000 30.874,-0.000 C30.874,-0.000 45.231,-0.000 45.231,-0.000 C46.338,-0.000 47.232,0.893 47.232,2.000 C47.232,2.000 47.232,15.488 47.232,15.488 C47.232,16.595 48.126,17.488 49.234,17.488 C49.234,17.488 62.996,17.488 62.996,17.488 C64.104,17.488 64.998,18.382 64.998,19.488 ZM36.832,28.023 C37.039,28.229 37.125,28.483 37.125,28.729 C37.119,29.243 36.725,29.730 36.125,29.730 C36.125,29.730 27.866,29.730 27.866,29.730 C27.866,29.730 24.443,29.730 24.443,29.730 C23.896,29.730 23.443,29.283 23.449,28.729 C23.449,28.729 23.449,17.055 23.449,17.055 C23.449,16.455 23.943,16.055 24.457,16.055 C24.703,16.055 24.950,16.141 25.157,16.348 C25.157,16.348 27.872,19.062 27.872,19.062 C27.872,19.062 36.832,28.023 36.832,28.023 ZM35.124,33.810 C36.231,33.810 37.125,34.703 37.125,35.810 C37.125,35.810 37.125,48.945 37.125,48.945 C37.125,48.945 37.125,62.000 37.125,62.000 C37.125,63.660 35.784,65.000 34.123,65.000 C34.123,65.000 3.002,65.000 3.002,65.000 C1.788,65.000 0.740,64.273 0.267,63.000 C0.093,62.533 -0.000,62.000 -0.000,61.400 C-0.000,61.400 -0.000,18.455 -0.000,18.455 C-0.000,17.395 1.341,16.055 3.002,16.055 C3.002,16.055 17.432,16.055 17.432,16.055 C18.539,16.055 19.433,16.948 19.433,18.055 C19.433,18.055 19.433,28.736 19.433,28.736 C19.433,28.736 19.433,31.810 19.433,31.810 C19.433,32.917 20.327,33.810 21.435,33.810 C21.435,33.810 27.872,33.810 27.872,33.810 C27.872,33.810 35.124,33.810 35.124,33.810 Z" id="path-1" class="cls-2" fill-rule="evenodd"/>
</svg>
