<?xml version="1.0" encoding="utf-8"?>
<!-- Generator: Adobe Illustrator 18.1.1, SVG Export Plug-In . SVG Version: 6.00 Build 0)  -->
<svg version="1.2" baseProfile="tiny" id="Objects" xmlns="http://www.w3.org/2000/svg" xmlns:xlink="http://www.w3.org/1999/xlink"
	 x="0px" y="0px" viewBox="0 0 799.9 395.2" xml:space="preserve">
<path fill-rule="evenodd" fill="#FFFFFF" d="M171.6,232.9c-5.3,0-9.8-2.9-10.7-6.6c-3.8-0.2-6.8-2.4-6.8-5.3c0-2.9,4.9-5.3,7.3-5.3
	c2.4,0,1.5,0.1,2.2,0.3c0.2-2.7,3.5-4.8,7-4.8s6.2,1.7,6.9,4c0.9-0.2,0-0.3,2.8-0.3c2.8,0,8.3,2.9,8.3,6c0,3.1-2.8,5.2-6.4,5.8
	C181.2,230.2,176.9,232.9,171.6,232.9L171.6,232.9z M294.9,242.6c-6.3,0-11.6-3.4-12.6-7.8c-4.5-0.2-8-2.9-8-6.2
	c0-3.4,5.8-6.3,8.6-6.3c2.9,0,1.8,0.1,2.7,0.3c0.3-3.1,4.1-5.6,8.3-5.6c4.2,0,7.3,2,8.1,4.7c1-0.3,0-0.4,3.3-0.4
	c3.3,0,9.8,3.4,9.8,7.1c0,3.6-3.2,6.2-7.6,6.9C306.2,239.5,301.2,242.6,294.9,242.6L294.9,242.6z M391.6,158.8
	c7.3,0,13.3,3.8,14.5,8.8c0.8-0.1,1.7-0.2,2.5-0.2c6.8,0,12.3,4,12.3,8.9c0,4.2-4.1,7.8-9.5,8.7c-0.5,7-8.5,12.6-18.4,12.6
	c-9.1,0-16.6-4.7-18.1-11c-6.8-0.7-12-4.9-12-10c0-5.6,6.2-10.1,13.9-10.1c0.2,0,0.3,0,0.5,0C379.1,162.1,384.9,158.8,391.6,158.8
	L391.6,158.8z M505.6,212.9c8.4,0,15.4-4.2,17.3-9.8c0.4,0,0.8,0,1.2,0c7.7,0,14-4.5,14-10.1c0-5.4-5.9-9.8-13.2-10.1
	c-0.9-4.1-5.7-7.2-11.6-7.2c-5.3,0-9.8,2.5-11.2,6c-1.3-0.3-2.6-0.5-4-0.5c-6.9,0-12.5,4.1-12.5,9.1c0,2.2,1.1,4.3,3,5.8
	c-0.5,1.2-0.8,2.5-0.8,3.8C487.7,207.1,495.7,212.9,505.6,212.9L505.6,212.9z M702.2,267c-8.2,0-14.9-4.3-16.2-10
	c-5.8-0.3-10.3-3.8-10.3-8c0-4.4,5-8,11.1-8c1.2,0,2.3,0.1,3.4,0.4c0.3-4,5-7.2,10.6-7.2c5.1,0,9.4,2.6,10.4,6
	c1.3-0.3,2.7-0.5,4.2-0.5c6.9,0,12.5,4.1,12.5,9.1c0,4.3-4.2,7.9-9.8,8.8C716.7,263,710.1,267,702.2,267L702.2,267z M756.6,216.4
	c-6.1,0-11.2-3.2-12.1-7.5c-4.3-0.2-7.7-2.8-7.7-6c0-3.3,3.7-6,8.3-6c0.9,0,1.7,0.1,2.6,0.3c0.2-3,3.7-5.4,8-5.4
	c3.8,0,7,1.9,7.8,4.5c1-0.3,2-0.4,3.1-0.4c5.2,0,9.4,3,9.4,6.8c0,3.2-3.1,5.9-7.3,6.6C767.5,213.4,762.6,216.4,756.6,216.4z"/>
<g>
	<path fill-rule="evenodd" fill="#A7D6D2" d="M719.4,309.6c-37.7,0-69.6,35.9-80.5,85.6h161.1C789,345.6,757.1,309.6,719.4,309.6z"
		/>
	<path fill-rule="evenodd" fill="#93C9B9" d="M718.3,309.6c-37.2,0.7-68.6,36.4-79.5,85.5H717C729.5,353.7,732.1,319.6,718.3,309.6z
		"/>
</g>
<g>
	<path fill-rule="evenodd" fill="#A7D6D2" d="M405.6,303.4c-55.8,0-103,38.5-119.2,91.8h238.4C508.6,341.9,461.3,303.4,405.6,303.4z
		"/>
	<path fill-rule="evenodd" fill="#93C9B9" d="M404,303.4c-55.1,0.7-101.6,39-117.6,91.8H402C420.6,350.7,424.4,314.1,404,303.4z"/>
</g>
<g>
	<path fill-rule="evenodd" fill="#A7D6D2" d="M193.1,333.2c-37.7,0-69.6,26-80.5,62h161.1C262.7,359.2,230.8,333.2,193.1,333.2z"/>
	<path fill-rule="evenodd" fill="#93C9B9" d="M192.1,333.2c-37.2,0.5-68.6,26.4-79.5,62h78.1C203.3,365.1,205.8,340.4,192.1,333.2z"
		/>
</g>
<g>
	<path fill-rule="evenodd" fill="#D36344" d="M419.1,125.7c-13.5,0-24.5,11-24.5,24.5c0,11.3,9.5,21,16,29.9h9.3h1h6.7
		c6.2-8.5,16-18.8,16-29.9C443.6,136.7,432.6,125.7,419.1,125.7z"/>
	<path fill-rule="evenodd" fill="#E5E5E5" d="M419.1,125.7c-10,0-18.1,11-18.1,24.5c0,11.3,7,21,11.8,29.9h6.9h0.8h5
		c4.6-8.5,11.8-18.8,11.8-29.9C437.2,136.7,429.1,125.7,419.1,125.7z"/>
	<path fill-rule="evenodd" fill="#D36344" d="M419.1,125.7c-5.9,0-10.7,11-10.7,24.5c0,11.3,4.2,21,7,29.9c2.5,0,5,0,7.5,0
		c2.7-8.5,7-18.8,7-29.9C429.8,136.7,425,125.7,419.1,125.7z"/>
	<path fill-rule="evenodd" fill="#E5E5E5" d="M419.1,125.7c-2.1,0-3.7,11-3.7,24.5c0,11.3,1.5,21,2.4,29.9h1.4h0.2h1
		c0.9-8.5,2.4-18.8,2.4-29.9C422.8,136.7,421.2,125.7,419.1,125.7z"/>
	<polygon fill-rule="evenodd" fill="#D36344" points="410.6,180 410.6,186.7 427.6,186.7 427.6,180 420.9,180 419.9,180 	"/>
	<path fill-rule="evenodd" fill="#407D24" d="M413.6,200.7v7.8c0,0.6,0.4,1,0.9,1h9.3c0.5,0,0.9-0.5,0.9-1v-7.8h-4.3h-0.7H413.6z"/>
	<path fill="#D36344" d="M426.8,186.5l-2.8,14.2l0.6,0.1l3-14.1L426.8,186.5L426.8,186.5z M418.7,186.6v14.1h0.9v-14.1H418.7
		L418.7,186.6z M410.6,186.7l3,14.1l0.6-0.1l-2.8-14.2L410.6,186.7z"/>
	<path fill="#EC7B5C" d="M419.1,200.7v-14.1h-0.4v14.1H419.1L419.1,200.7z M410.6,186.7l3,14.1l0.6-0.1l-2.8-14.2L410.6,186.7z"/>
	<path fill="none" stroke="#D36344" stroke-width="1.1999" stroke-miterlimit="22.9256" d="M424.3,200.7c-0.5,1-3.5,2.3-5.3,0"/>
	<path fill-rule="evenodd" fill="#D36344" d="M419.4,200.7h-0.5c-0.4,0.8-0.9,1.7-1.2,2.8c-0.3,1.3,0.7,2.1,1.5,2.1
		c0.8,0,1.8-0.8,1.5-2.1C420.3,202.4,419.7,201.5,419.4,200.7z"/>
	<path fill-rule="evenodd" fill="#EE7517" d="M413.9,200.7h-0.3v4.9c0.8,0,1.8-0.8,1.5-2.1C414.8,202.4,414.2,201.5,413.9,200.7z"/>
	<path fill-rule="evenodd" fill="#D36344" d="M424.4,200.5l0.2,0.2v4.9c-0.8,0-1.8-0.8-1.5-2.1C423.4,202.4,424,201.3,424.4,200.5z"
		/>
	<path fill-rule="evenodd" fill="#EC7B5C" d="M419.1,125.7c-13.5,0-24.5,11-24.5,24.5c0,11.3,9.5,21,16,29.9h8.5
		C417,162,417.2,143.8,419.1,125.7z"/>
	<path fill-rule="evenodd" fill="#FFFFFF" d="M419.1,125.7c-10,0-18.1,11-18.1,24.5c0,11.3,7,21,11.8,29.9h6.3V125.7z"/>
	<path fill-rule="evenodd" fill="#EC7B5C" d="M419.1,125.7c-5.9,0-10.7,11-10.7,24.5c0,11.3,4.2,21,7,29.9h3.7
		C414.6,162,415.4,143.8,419.1,125.7z"/>
	<path fill-rule="evenodd" fill="#FFFFFF" d="M419.1,125.7c-2.1,0-3.7,11-3.7,24.5c0,11.3,1.5,21,2.4,29.9h1.3V125.7z"/>
	<rect x="410.6" y="180" fill-rule="evenodd" fill="#EC7B5C" width="8.5" height="6.7"/>
	<path fill-rule="evenodd" fill="#5BA339" d="M413.6,200.7v7.8c0,0.6,0.4,1,0.9,1h4.6c0-1.5,0-2.5,0-3.9c-0.5-1.5-0.5-3.5,0-4.9
		H413.6z"/>
	<path fill="#EC7B5C" d="M413.6,200.8c0.1,0.2,0.3,0.5,0.6,0.7c0.4,0.3,1,0.6,1.7,0.7c0.7,0.1,1.4,0.1,2.1-0.3
		c0.5-0.2,0.6-0.6,1-1.1l0.1-0.1V200l-0.3,0.5c-0.3,0.4-0.7,0.7-1.1,0.9c-0.6,0.3-1.2,0.3-1.7,0.2c-0.6-0.1-1.1-0.3-1.4-0.6
		c-0.2-0.2-0.3-0.3-0.4-0.4L413.6,200.8z"/>
	<g>
		<path fill-rule="evenodd" fill="#EC7B5C" d="M419.1,200.7h-0.3c-0.4,0.8-0.9,1.7-1.2,2.8c-0.3,1.3,0.6,2.1,1.4,2.1V200.7z"/>
		<path fill-rule="evenodd" fill="#EC7B5C" d="M413.8,200.5l-0.1,0.2v4.9c0.8,0,1.8-0.8,1.5-2.1
			C414.8,202.4,414.1,201.3,413.8,200.5z"/>
	</g>
</g>
<g>
	<polygon fill-rule="evenodd" fill="#80898B" points="685.2,395.2 593.8,126.4 552.9,133.4 537.7,125.6 446,395.2 	"/>
	<polygon fill-rule="evenodd" fill="#96A0A2" points="515.8,395.2 552.9,133.4 537.7,125.6 446,395.2 	"/>
	<polygon fill-rule="evenodd" fill="#CBD2D3" points="552.9,133.4 593.8,126.4 565.6,43.5 	"/>
	<polygon fill-rule="evenodd" fill="#FFFFFF" points="565.6,43.5 537.7,125.6 552.9,133.4 	"/>
</g>
<g>
	<polygon fill-rule="evenodd" fill="#80898B" points="554,395.2 487.4,253.9 458.3,257.5 447.4,253.5 380.7,395.2 	"/>
	<polygon fill-rule="evenodd" fill="#96A0A2" points="431.2,395.2 458.3,257.5 447.4,253.5 380.7,395.2 	"/>
	<polygon fill-rule="evenodd" fill="#CBD2D3" points="458.3,257.5 487.4,253.9 467.3,211.2 	"/>
	<polygon fill-rule="evenodd" fill="#FFFFFF" points="467.3,211.2 447.4,253.5 458.3,257.5 	"/>
</g>
<g>
	<polygon fill-rule="evenodd" fill="#80898B" points="766.9,395.2 690,230.3 656.3,234.5 643.8,229.8 566.7,395.2 	"/>
	<polygon fill-rule="evenodd" fill="#96A0A2" points="625.1,395.2 656.3,234.5 643.8,229.8 566.7,395.2 	"/>
	<polygon fill-rule="evenodd" fill="#CBD2D3" points="656.3,234.5 690,230.3 666.8,180.5 	"/>
	<polygon fill-rule="evenodd" fill="#FFFFFF" points="666.8,180.5 643.8,229.8 656.3,234.5 	"/>
</g>
<g>
	<path fill-rule="evenodd" fill="#407D24" d="M580.8,302.4c-69.1,0-127.7,39-147.8,92.8h295.5C708.5,341.4,649.9,302.4,580.8,302.4z
		"/>
	<path fill-rule="evenodd" fill="#5BA339" d="M580.8,302.4c-69.1,0-127.7,39-147.8,92.8h165.7C609.4,351.3,605.4,312.4,580.8,302.4z
		"/>
</g>
<g>
	<polygon fill-rule="evenodd" fill="#80898B" points="414.1,395.2 360.6,300.9 337.1,303.3 328.4,300.6 274.8,395.2 	"/>
	<polygon fill-rule="evenodd" fill="#96A0A2" points="315.4,395.2 337.1,303.3 328.4,300.6 274.8,395.2 	"/>
	<polygon fill-rule="evenodd" fill="#CBD2D3" points="337.1,303.3 360.6,300.9 344.4,272.4 	"/>
	<polygon fill-rule="evenodd" fill="#FFFFFF" points="344.4,272.4 328.4,300.6 337.1,303.3 	"/>
</g>
<g>
	<path fill-rule="evenodd" fill="#407D24" d="M269.3,326.3c-51.9,0-95.8,28.9-110.9,68.9h221.7C365.1,355.2,321.2,326.3,269.3,326.3
		z"/>
	<path fill-rule="evenodd" fill="#5BA339" d="M267.9,326.3c-51.2,0.5-94.5,29.3-109.4,68.9H266C283.3,361.8,286.8,334.3,267.9,326.3
		z"/>
</g>
<g>
	<path fill-rule="evenodd" fill="#407D24" d="M700.4,363c-46.5,0-85.9,13.5-99.5,32.2h199.1C786.2,376.5,746.9,363,700.4,363z"/>
	<path fill-rule="evenodd" fill="#5BA339" d="M700.4,363c-46.5,0-85.9,13.5-99.5,32.2h124.7C725.8,379.2,716.4,368.7,700.4,363
		L700.4,363z"/>
</g>
<g>
	<path fill-rule="evenodd" fill="#734325" d="M169.4,378.2h-2.3v4.6c0.8,0.3,1.6,0.4,2.3,0V378.2z"/>
	<path fill-rule="evenodd" fill="#8B5D3F" d="M168.2,378.2h-1.2v4.6c0.4,0.2,0.8,0.2,1.2,0.3V378.2z"/>
	<path fill-rule="evenodd" fill="#98CE3C" d="M168.2,355.4c-4.2,6.8-6.6,14.3-6.7,23c4.4,1.4,8.8,1.5,13.3,0
		C174.5,370.8,171.9,363.1,168.2,355.4z"/>
	<path fill-rule="evenodd" fill="#B4E75D" d="M168.2,355.4c-4.2,6.8-6.6,14.3-6.7,23c2.2,0.7,4.4,1.1,6.7,1.1
		C168.8,376.6,168.9,362.2,168.2,355.4z"/>
</g>
<g>
	<path fill-rule="evenodd" fill="#407D24" d="M99.5,363c-46.5,0-85.9,13.5-99.5,32.2h199.1C185.4,376.5,146,363,99.5,363z"/>
	<path fill-rule="evenodd" fill="#5BA339" d="M99.5,363c-46.5,0-85.9,13.5-99.5,32.2h124.7C124.9,379.2,115.6,368.7,99.5,363z"/>
</g>
<g>
	<path fill-rule="evenodd" fill="#734325" d="M328.3,362.5H326v4.6c0.8,0.3,1.6,0.4,2.3,0V362.5z"/>
	<path fill-rule="evenodd" fill="#8B5D3F" d="M327.1,362.5H326v4.6c0.4,0.2,0.8,0.2,1.1,0.3V362.5z"/>
	<path fill-rule="evenodd" fill="#98CE3C" d="M327.1,339.8c-4.2,6.8-6.6,14.3-6.7,23c4.4,1.4,8.8,1.5,13.3,0
		C333.4,355.1,330.8,347.4,327.1,339.8z"/>
	<path fill-rule="evenodd" fill="#B4E75D" d="M327.1,339.8c-4.2,6.8-6.6,14.3-6.7,23c2.2,0.7,4.4,1.1,6.7,1.1
		C327.7,360.9,327.8,346.6,327.1,339.8z"/>
</g>
<g>
	<path fill-rule="evenodd" fill="#734325" d="M341.5,353.4h-1.6v3.3c0.6,0.2,1.1,0.3,1.6,0V353.4z"/>
	<path fill-rule="evenodd" fill="#8B5D3F" d="M340.7,353.4h-0.8v3.3c0.3,0.1,0.6,0.2,0.8,0.2V353.4z"/>
	<path fill-rule="evenodd" fill="#98CE3C" d="M340.7,337c-3,4.8-4.7,10.3-4.8,16.5c3.1,1,6.3,1.1,9.6,0
		C345.1,348,343.3,342.5,340.7,337z"/>
	<path fill-rule="evenodd" fill="#B4E75D" d="M340.7,337c-3,4.8-4.7,10.3-4.8,16.5c1.6,0.5,3.2,0.8,4.8,0.8
		C341.1,352.2,341.2,341.9,340.7,337z"/>
</g>
<g>
	<path fill-rule="evenodd" fill="#407D24" d="M395.1,345.5c-49,0-90.5,20.8-104.8,49.6h209.6C485.5,366.4,444,345.5,395.1,345.5z"/>
	<path fill-rule="evenodd" fill="#5BA339" d="M395.1,345.5c-49,0-90.5,20.8-104.8,49.6h130.2C430.9,369,419.8,353.2,395.1,345.5z"/>
</g>
<g>
	<path fill-rule="evenodd" fill="#734325" d="M693.7,355.1h-4.1v14.5c1.4,1,2.8,1.1,4.1,0V355.1z"/>
	<path fill-rule="evenodd" fill="#8B5D3F" d="M691.7,355.1h-2v14.5c0.7,0.5,1.4,0.8,2,0.8V355.1z"/>
	<ellipse fill-rule="evenodd" fill="#98CE3C" cx="691.7" cy="341.8" rx="11.7" ry="18.9"/>
	<path fill-rule="evenodd" fill="#B4E75D" d="M691.3,323c-6.3,0.3-11.4,8.6-11.4,18.8c0,10.4,5.2,18.8,11.7,18.8
		c3.4-7.2,3.8-29.4,0-37.7C691.6,322.9,691.5,323,691.3,323z"/>
</g>
<g>
	<path fill-rule="evenodd" fill="#734325" d="M663.1,369.9h-5V380c1.8,0.7,3.5,0.8,5,0V369.9z"/>
	<path fill-rule="evenodd" fill="#8B5D3F" d="M660.6,369.9h-2.5V380c0.9,0.4,1.7,0.5,2.5,0.6V369.9z"/>
	<path fill-rule="evenodd" fill="#98CE3C" d="M660.6,320c-9.3,14.8-14.5,31.5-14.6,50.4c9.6,3.1,19.3,3.4,29.2,0
		C674.3,353.6,668.7,336.8,660.6,320z"/>
	<path fill-rule="evenodd" fill="#B4E75D" d="M660.6,320c-9.3,14.8-14.5,31.5-14.6,50.4c4.8,1.5,9.7,2.4,14.6,2.4
		C661.8,366.4,662.1,334.9,660.6,320z"/>
</g>
<g>
	<path fill-rule="evenodd" fill="#734325" d="M637.9,317.8h-4.1v14.4c1.4,1,2.8,1.1,4.1,0V317.8z"/>
	<path fill-rule="evenodd" fill="#8B5D3F" d="M635.9,317.8h-2v14.4c0.7,0.5,1.4,0.8,2,0.8V317.8z"/>
	<ellipse fill-rule="evenodd" fill="#98CE3C" cx="635.9" cy="304.5" rx="11.6" ry="18.8"/>
	<path fill-rule="evenodd" fill="#B4E75D" d="M635.6,285.7c-6.3,0.3-11.3,8.6-11.3,18.8c0,10.4,5.2,18.8,11.6,18.8
		c3.4-7.2,3.8-29.3,0-37.5C635.8,285.7,635.7,285.7,635.6,285.7z"/>
</g>
<g>
	<path fill-rule="evenodd" fill="#734325" d="M610.6,302.9h-2.4v8.6c0.9,0.6,1.7,0.7,2.4,0V302.9z"/>
	<path fill-rule="evenodd" fill="#8B5D3F" d="M609.4,302.9h-1.2v8.6c0.4,0.3,0.8,0.5,1.2,0.5V302.9z"/>
	<ellipse fill-rule="evenodd" fill="#98CE3C" cx="609.4" cy="295" rx="7" ry="11.2"/>
	<path fill-rule="evenodd" fill="#B4E75D" d="M609.2,283.8c-3.8,0.2-6.8,5.1-6.8,11.2c0,6.2,3.1,11.2,7,11.2c2-4.3,2.3-17.5,0-22.4
		C609.3,283.8,609.2,283.8,609.2,283.8z"/>
</g>
<g>
	<path fill-rule="evenodd" fill="#734325" d="M70.8,363.8h-4.1v8.2c1.5,0.6,2.8,0.6,4.1,0V363.8z"/>
	<path fill-rule="evenodd" fill="#8B5D3F" d="M68.8,363.8h-2.1v8.2c0.7,0.3,1.4,0.4,2.1,0.5V363.8z"/>
	<path fill-rule="evenodd" fill="#98CE3C" d="M68.8,323c-7.6,12.1-11.9,25.7-11.9,41.2c7.8,2.5,15.8,2.7,23.9,0
		C79.9,350.5,75.4,336.8,68.8,323z"/>
	<path fill-rule="evenodd" fill="#B4E75D" d="M68.8,323c-7.6,12.1-11.9,25.7-11.9,41.2c3.9,1.3,7.9,1.9,11.9,2
		C69.7,360.9,70,335.2,68.8,323z"/>
</g>
<g>
	<path fill-rule="evenodd" fill="#734325" d="M561.1,321.7h-2.9v5.9c1,0.4,2,0.5,2.9,0V321.7z"/>
	<path fill-rule="evenodd" fill="#8B5D3F" d="M559.6,321.7h-1.5v5.9c0.5,0.2,1,0.3,1.5,0.3V321.7z"/>
	<path fill-rule="evenodd" fill="#98CE3C" d="M559.6,292.5c-5.4,8.7-8.5,18.4-8.6,29.5c5.6,1.8,11.3,2,17.1,0
		C567.6,312.1,564.3,302.3,559.6,292.5z"/>
	<path fill-rule="evenodd" fill="#B4E75D" d="M559.6,292.5c-5.4,8.7-8.5,18.4-8.6,29.5c2.8,0.9,5.7,1.4,8.6,1.4
		C560.3,319.6,560.5,301.2,559.6,292.5z"/>
</g>
<g>
	<path fill-rule="evenodd" fill="#734325" d="M576.3,312.8h-2.1v4.2c0.8,0.3,1.5,0.3,2.1,0V312.8z"/>
	<path fill-rule="evenodd" fill="#8B5D3F" d="M575.3,312.8h-1.1v4.2c0.4,0.1,0.7,0.2,1.1,0.2V312.8z"/>
	<path fill-rule="evenodd" fill="#98CE3C" d="M575.3,291.9c-3.9,6.2-6.1,13.2-6.1,21.1c4,1.3,8.1,1.4,12.3,0
		C581,306,578.7,299,575.3,291.9z"/>
	<path fill-rule="evenodd" fill="#B4E75D" d="M575.3,291.9c-3.9,6.2-6.1,13.2-6.1,21.1c2,0.6,4.1,1,6.1,1
		C575.8,311.4,575.9,298.2,575.3,291.9z"/>
</g>
<g>
	<path fill-rule="evenodd" fill="#734325" d="M92.4,366.6h-4.1v14.6c1.5,1,2.8,1.1,4.1,0V366.6z"/>
	<path fill-rule="evenodd" fill="#8B5D3F" d="M90.3,366.6h-2.1v14.6c0.7,0.5,1.4,0.8,2.1,0.8V366.6z"/>
	<ellipse fill-rule="evenodd" fill="#98CE3C" cx="90.3" cy="356.8" rx="14.6" ry="15.3"/>
	<path fill-rule="evenodd" fill="#B4E75D" d="M89.9,341.5c-7.9,0.2-14.2,7-14.2,15.3c0,8.5,6.6,15.3,14.6,15.3
		c4.3-5.9,4.8-23.9,0-30.7C90.2,341.5,90.1,341.5,89.9,341.5z"/>
</g>
<g>
	<path fill-rule="evenodd" fill="#734325" d="M314.3,347.6h-1.6v3.3c0.6,0.2,1.1,0.3,1.6,0V347.6z"/>
	<path fill-rule="evenodd" fill="#8B5D3F" d="M313.5,347.6h-0.8v3.3c0.3,0.1,0.6,0.2,0.8,0.2V347.6z"/>
	<path fill-rule="evenodd" fill="#98CE3C" d="M313.5,331.3c-3,4.8-4.7,10.3-4.8,16.5c3.1,1,6.3,1.1,9.6,0
		C317.9,342.2,316.1,336.8,313.5,331.3z"/>
	<path fill-rule="evenodd" fill="#B4E75D" d="M313.5,331.3c-3,4.8-4.7,10.3-4.8,16.5c1.6,0.5,3.2,0.8,4.8,0.8
		C313.8,346.4,313.9,336.1,313.5,331.3z"/>
</g>
<g>
	<path fill-rule="evenodd" fill="#734325" d="M203.8,357.6h-1.6v3.3c0.6,0.2,1.1,0.3,1.6,0V357.6z"/>
	<path fill-rule="evenodd" fill="#8B5D3F" d="M203,357.6h-0.8v3.3c0.3,0.1,0.6,0.2,0.8,0.2V357.6z"/>
	<path fill-rule="evenodd" fill="#98CE3C" d="M203,341.3c-3,4.8-4.7,10.3-4.8,16.5c3.1,1,6.3,1.1,9.6,0
		C207.5,352.3,205.6,346.8,203,341.3z"/>
	<path fill-rule="evenodd" fill="#B4E75D" d="M203,341.3c-3,4.8-4.7,10.3-4.8,16.5c1.6,0.5,3.2,0.8,4.8,0.8
		C203.4,356.5,203.5,346.2,203,341.3z"/>
</g>
<g>
	<path fill-rule="evenodd" fill="#734325" d="M185.4,367.3h-1.6v3.3c0.6,0.2,1.1,0.3,1.6,0V367.3z"/>
	<path fill-rule="evenodd" fill="#8B5D3F" d="M184.6,367.3h-0.8v3.3c0.3,0.1,0.6,0.2,0.8,0.2V367.3z"/>
	<path fill-rule="evenodd" fill="#98CE3C" d="M184.6,351c-3,4.8-4.7,10.3-4.8,16.5c3.1,1,6.3,1.1,9.6,0
		C189.1,361.9,187.2,356.5,184.6,351z"/>
	<path fill-rule="evenodd" fill="#B4E75D" d="M184.6,351c-3,4.8-4.7,10.3-4.8,16.5c1.6,0.5,3.2,0.8,4.8,0.8
		C185,366.1,185.1,355.8,184.6,351z"/>
</g>
<g>
	<path fill-rule="evenodd" fill="#734325" d="M718.5,362.4h-2.4v8.6c0.9,0.6,1.7,0.7,2.4,0V362.4z"/>
	<path fill-rule="evenodd" fill="#8B5D3F" d="M717.3,362.4h-1.2v8.6c0.4,0.3,0.8,0.5,1.2,0.5V362.4z"/>
	<ellipse fill-rule="evenodd" fill="#98CE3C" cx="717.3" cy="354.5" rx="7" ry="11.2"/>
	<path fill-rule="evenodd" fill="#B4E75D" d="M717.1,343.2c-3.8,0.2-6.8,5.1-6.8,11.2c0,6.2,3.1,11.2,7,11.2c2-4.3,2.3-17.5,0-22.4
		C717.2,343.2,717.2,343.2,717.1,343.2z"/>
</g>
<g>
	<path fill-rule="evenodd" fill="#734325" d="M453.7,366.9h-4.2v8.4c1.5,0.6,2.9,0.7,4.2,0V366.9z"/>
	<path fill-rule="evenodd" fill="#8B5D3F" d="M451.6,366.9h-2.1v8.4c0.7,0.3,1.4,0.5,2.1,0.5V366.9z"/>
	<path fill-rule="evenodd" fill="#98CE3C" d="M451.6,325.4c-7.7,12.3-12.1,26.2-12.2,41.9c7.9,2.5,16,2.8,24.3,0
		C463,353.3,458.4,339.4,451.6,325.4z"/>
	<path fill-rule="evenodd" fill="#B4E75D" d="M451.6,325.4c-7.7,12.3-12.1,26.2-12.2,41.9c4,1.3,8.1,2,12.2,2
		C452.6,363.9,452.9,337.8,451.6,325.4z"/>
</g>
<g>
	<path fill-rule="evenodd" fill="#734325" d="M417.5,360.9h-3v6c1.1,0.4,2.1,0.5,3,0V360.9z"/>
	<path fill-rule="evenodd" fill="#8B5D3F" d="M416,360.9h-1.5v6c0.5,0.2,1,0.3,1.5,0.3V360.9z"/>
	<path fill-rule="evenodd" fill="#98CE3C" d="M416,331.2c-5.6,8.8-8.7,18.8-8.7,30c5.7,1.8,11.5,2,17.4,0
		C424.1,351.2,420.8,341.2,416,331.2z"/>
	<path fill-rule="evenodd" fill="#B4E75D" d="M416,331.2c-5.6,8.8-8.7,18.8-8.7,30c2.9,0.9,5.8,1.4,8.7,1.4
		C416.7,358.8,416.9,340,416,331.2z"/>
</g>
<g>
	<path fill-rule="evenodd" fill="#FFFFFF" d="M196.1,193.7c15.3,1.3,24.1,4.6,30.9,12.3c1.5-10.2,7.1-17.7,19.3-27.1
		c-12.8,7.4-18.9,12.8-21.5,19.5C218.9,194.2,210.8,193,196.1,193.7z"/>
	<path fill-rule="evenodd" fill="#FFFFFF" d="M260.5,168.2c11.9,2.2,18.6,5.4,23.3,12c2-7.9,6.9-13.3,17.2-19.8
		c-10.6,4.8-15.8,8.6-18.4,13.7C278.4,170.3,272.1,168.7,260.5,168.2z"/>
	<path fill-rule="evenodd" fill="#FFFFFF" d="M214.9,145.1c11.9,2.2,18.6,5.4,23.3,12c2-7.9,6.9-13.3,17.2-19.8
		c-10.6,4.8-15.8,8.6-18.4,13.7C232.8,147.2,226.5,145.6,214.9,145.1z"/>
	<path fill-rule="evenodd" fill="#FFFFFF" d="M314.2,187.4c8.4,1.5,13,3.8,16.4,8.4c1.4-5.5,4.9-9.4,12-13.9
		c-7.4,3.4-11.1,6-12.9,9.6C326.8,188.9,322.4,187.8,314.2,187.4z"/>
</g>
</svg>
