<?xml version="1.0" encoding="utf-8"?>
<!-- Generator: Adobe Illustrator 18.1.1, SVG Export Plug-In . SVG Version: 6.00 Build 0)  -->
<svg version="1.2" baseProfile="tiny" id="Layer_1" xmlns="http://www.w3.org/2000/svg" xmlns:xlink="http://www.w3.org/1999/xlink"
	 x="0px" y="0px" viewBox="0 0 31.3 59.7" xml:space="preserve">
<g>
	<g>
		<path fill="#EDEDED" d="M6.5,57.6c-2.2,0-4.1-1.8-4.1-4.1V6.9c0-2.2,1.8-4.1,4.1-4.1h17.9c2.2,0,4.1,1.8,4.1,4.1v46.6
			c0,2.2-1.8,4.1-4.1,4.1H6.5z"/>
		<path fill="none" stroke="#FFFFFF" stroke-width="0.1" stroke-miterlimit="10" d="M6.5,57.6c-2.2,0-4.1-1.8-4.1-4.1V6.9
			c0-2.2,1.8-4.1,4.1-4.1h17.9c2.2,0,4.1,1.8,4.1,4.1v46.6c0,2.2-1.8,4.1-4.1,4.1H6.5z"/>
	</g>
	<rect x="4.3" y="10.5" fill="#58595B" width="22.3" height="39.5"/>
	<circle fill="#C4C4C3" cx="15.4" cy="54.1" r="2"/>
	<circle fill="#58595B" cx="15.4" cy="5.5" r="0.5"/>
</g>
</svg>
